<?xml version="1.0" encoding="utf-8"?>
<svg viewBox="0 0 500 500" xmlns="http://www.w3.org/2000/svg">
  <defs>
    <linearGradient gradientUnits="userSpaceOnUse" x1="261.665" y1="124.435" x2="261.665" y2="413.28" id="gradient-0" gradientTransform="matrix(-0.815511, -0.578739, 0.602857, -0.849501, 273.748962, 648.567078)">
      <stop offset="0" style="stop-color: rgba(240, 96, 101, 1)"/>
      <stop offset="1" style="stop-color: rgb(142, 30, 73);"/>
    </linearGradient>
    <linearGradient gradientUnits="userSpaceOnUse" x1="261.665" y1="124.435" x2="261.665" y2="413.28" id="gradient-3" gradientTransform="matrix(-0.815511, -0.578739, 0.602857, -0.849501, 273.748962, 648.567078)">
      <stop offset="0" style="stop-color: rgba(240, 96, 101, 1)"/>
      <stop offset="1" style="stop-color: rgb(142, 30, 73);"/>
    </linearGradient>
  </defs>
  <g>
    <path d="M 250.326 345.369 C 250.326 382.875 219.921 413.28 182.415 413.28 C 144.909 413.28 114.504 382.875 114.504 345.369 C 114.504 307.863 144.909 277.458 182.415 277.458 C 195.769 277.458 208.223 281.313 218.725 287.97 C 256.115 249.441 263.282 188.866 232.705 142.015 C 229.901 137.719 226.864 133.667 223.621 129.865 C 223.7 129.89 223.779 129.916 223.857 129.941 C 241.218 123.324 260.875 122.401 279.902 128.649 C 323.953 143.116 347.935 190.555 333.468 234.606 C 330.039 245.047 324.757 254.361 318.107 262.303 C 326.255 206.818 293.594 151.859 238.496 133.764 C 233.704 132.19 228.883 130.942 224.058 130.007 C 241.588 135.738 257.357 147.257 268.222 163.905 C 293.563 202.733 282.629 254.753 243.801 280.094 C 236.895 284.601 229.571 287.961 222.054 290.22 C 239.177 302.55 250.326 322.657 250.326 345.369 Z" style="fill: url(#gradient-0); stroke-width: 0px; stroke-linejoin: round;"/>
    <path d="M 408.825 318.248 C 408.825 352.624 380.957 380.492 346.581 380.492 C 312.205 380.492 284.337 352.624 284.337 318.248 C 284.337 283.872 312.205 256.004 346.581 256.004 C 380.957 256.004 408.825 283.872 408.825 318.248 Z" style="fill: url(#gradient-3); stroke-width: 0px; stroke-linejoin: round;"/>
  </g>
</svg>