<?xml version="1.0" encoding="utf-8"?>
<svg viewBox="0 0 500 500" xmlns="http://www.w3.org/2000/svg">
  <defs>
    <radialGradient gradientUnits="userSpaceOnUse" cx="235.4" cy="216.12" r="217.127" id="gradient-1" gradientTransform="matrix(0.828664, -0.913118, 0.740522, 0.672032, -124.645623, 286.936795)">
      <stop offset="0" style="stop-color: rgb(98, 98, 98);"/>
      <stop offset="1" style="stop-color: rgb(122, 122, 121);"/>
    </radialGradient>
  </defs>
  <path d="M 32.219 216.825 C 32.219 133.105 100.087 65.237 183.807 65.237 C 200.937 65.237 217.403 68.078 232.76 73.315 C 251.527 30.169 294.533 0 344.585 0 C 411.902 0 466.473 54.571 466.473 121.888 C 466.473 189.205 411.902 243.776 344.585 243.776 C 340.712 243.776 336.882 243.595 333.101 243.242 C 326.656 279.919 307.025 312.054 279.277 334.578 C 293.275 352.009 301.649 374.148 301.649 398.243 C 301.649 454.442 256.091 500 199.892 500 C 143.693 500 98.135 454.442 98.135 398.243 C 98.135 380.604 102.623 364.014 110.519 349.551 C 63.831 323.716 32.219 273.962 32.219 216.825 Z" style="fill: url(#gradient-1);"/>
</svg>